<?xml version="1.0" encoding="UTF-8"?>
<svg version="1.1" xmlns="http://www.w3.org/2000/svg" width="78" height="78">
<path d="M0 0 C25.74 0 51.48 0 78 0 C78 25.74 78 51.48 78 78 C52.26 78 26.52 78 0 78 C0 52.26 0 26.52 0 0 Z " fill="#0F4882" transform="translate(0,0)"/>
<path d="M0 0 C1.010625 -0.00773438 2.02125 -0.01546875 3.0625 -0.0234375 C7.18625297 0.53590133 9.80348082 2.26099939 12.8125 5.0625 C14.60658216 8.55623895 14.96124194 11.61865739 14 15.375 C11.27416856 19.52101252 7.75412887 22.73084826 4 25.9375 C3.34 26.741875 2.68 27.54625 2 28.375 C2.28353462 30.71490677 2.62824323 33.04747933 3 35.375 C3.1260276 38.52194316 3.09548561 41.66364258 3.0625 44.8125 C3.05798828 45.63943359 3.05347656 46.46636719 3.04882812 47.31835938 C3.03715811 49.33727146 3.01922718 51.35614574 3 53.375 C-1.29 53.375 -5.58 53.375 -10 53.375 C-10.66 54.695 -11.32 56.015 -12 57.375 C-14.31 57.375 -16.62 57.375 -19 57.375 C-18.835 56.88 -18.67 56.385 -18.5 55.875 C-17.46041108 50.6770554 -17.71955702 45.49677191 -19 40.375 C-16.36 40.375 -13.72 40.375 -11 40.375 C-10.731875 41.014375 -10.46375 41.65375 -10.1875 42.3125 C-9.11332248 44.70631686 -9.11332248 44.70631686 -6 45.375 C-7.07215187 37.8699369 -9.4164446 31.52965952 -12.61157227 24.70532227 C-14.88927059 19.58694623 -15.79343654 14.97826113 -15 9.375 C-11.65817138 2.69134276 -7.44003359 -0.05693903 0 0 Z " fill="#1D83D3" transform="translate(28,13.625)"/>
<path d="M0 0 C-0.99 4.95 -1.98 9.9 -3 15 C-4.32 14.34 -5.64 13.68 -7 13 C-7.99 13 -8.98 13 -10 13 C-11.6877081 14.76401402 -11.6877081 14.76401402 -13.1875 17 C-13.98220703 18.11375 -13.98220703 18.11375 -14.79296875 19.25 C-15.19128906 19.8275 -15.58960937 20.405 -16 21 C-15.34 21 -14.68 21 -14 21 C-14 20.34 -14 19.68 -14 19 C-11.69 19 -9.38 19 -7 19 C-7.125 21.75 -7.125 21.75 -8 25 C-10.70512156 26.96121313 -13.4714266 28.69421373 -16.36328125 30.3671875 C-20.3412349 33.32368893 -22.62466352 35.84291915 -23.49804688 40.86230469 C-24.16871713 48.23748581 -24.14023012 55.60145867 -24 63 C-27.63 63 -31.26 63 -35 63 C-37.08320344 33.95266587 -37.08320344 33.95266587 -32.57421875 27.55078125 C-29.74204991 24.52160389 -26.43228887 22.30251168 -23 20 C-20.79810151 17.79220132 -20.79810151 17.79220132 -19 15.5625 C-18.47277344 14.94503906 -17.94554688 14.32757813 -17.40234375 13.69140625 C-15.57195417 11.48372188 -13.76555502 9.25991042 -12 7 C-13.32 6.34 -14.64 5.68 -16 5 C-16 4.34 -16 3.68 -16 3 C-14.08802961 2.29954544 -12.17019565 1.615081 -10.25 0.9375 C-9.18265625 0.55464844 -8.1153125 0.17179688 -7.015625 -0.22265625 C-4 -1 -4 -1 0 0 Z " fill="#1F7EC9" transform="translate(70,8)"/>
<path d="M0 0 C-0.99 4.95 -1.98 9.9 -3 15 C-4.32 14.34 -5.64 13.68 -7 13 C-10.01040153 12.65877917 -10.01040153 12.65877917 -11.6484375 14.5390625 C-12.21820313 15.22742188 -12.78796875 15.91578125 -13.375 16.625 C-14.29152344 17.71361328 -14.29152344 17.71361328 -15.2265625 18.82421875 C-16.3111725 20.15489665 -17.39061454 21.48983481 -18.4609375 22.83203125 C-21.73712625 26.91237542 -21.73712625 26.91237542 -25 28 C-25.33 27.34 -25.66 26.68 -26 26 C-26.66 26.33 -27.32 26.66 -28 27 C-26.30582584 22.69044448 -23.14074835 19.73010057 -20 16.4375 C-18.91478852 15.29214118 -17.83138535 14.14506568 -16.75 12.99609375 C-16.27046875 12.49263428 -15.7909375 11.9891748 -15.296875 11.47045898 C-13.78377818 9.82120675 -13.78377818 9.82120675 -12 7 C-13.32 6.34 -14.64 5.68 -16 5 C-16 4.34 -16 3.68 -16 3 C-14.08802961 2.29954544 -12.17019565 1.615081 -10.25 0.9375 C-9.18265625 0.55464844 -8.1153125 0.17179688 -7.015625 -0.22265625 C-4 -1 -4 -1 0 0 Z " fill="#2D9BDC" transform="translate(70,8)"/>
<path d="M0 0 C1.01964844 -0.01675781 2.03929687 -0.03351562 3.08984375 -0.05078125 C7.25295023 0.45798209 9.84542435 2.1793606 12.875 5 C14.66657602 8.48885857 14.25711943 11.42011147 14.0625 15.3125 C11.29985711 15.90982819 8.90217231 16.3125 6.0625 16.3125 C5.86333984 15.46365234 5.86333984 15.46365234 5.66015625 14.59765625 C5.48355469 13.86417969 5.30695312 13.13070313 5.125 12.375 C4.95097656 11.64410156 4.77695312 10.91320312 4.59765625 10.16015625 C4.22362431 8.31280102 4.22362431 8.31280102 3.0625 7.3125 C0.27020345 7.57626743 -2.49589788 7.96314667 -5.2734375 8.3515625 C-7.9375 8.3125 -7.9375 8.3125 -9.7890625 6.8359375 C-10.16804688 6.33320313 -10.54703125 5.83046875 -10.9375 5.3125 C-9.9375 2.3125 -9.9375 2.3125 -8.24609375 1.14453125 C-5.3969157 0.11767012 -3.02659431 0.01144992 0 0 Z " fill="#239CE2" transform="translate(27.9375,13.6875)"/>
<path d="M0 0 C2 2 2 2 2.5 5.6875 C2.43286625 10.27777014 0.40585058 12.54208088 -2.6875 15.75 C-3.120625 16.1625 -3.55375 16.575 -4 17 C-7 16 -7 16 -8.1875 13.875 C-9.18103745 10.35940595 -9.39684753 7.63776902 -9 4 C-6.44752825 0.31309637 -4.449425 -0.70254079 0 0 Z " fill="#0B4580" transform="translate(31,20)"/>
<path d="M0 0 C2.31 0 4.62 0 7 0 C6.875 2.75 6.875 2.75 6 6 C4.02050434 7.36358891 2.01672975 8.69210899 0 10 C-1.94070599 11.78576465 -3.83690449 13.6210132 -5.6875 15.5 C-6.15994141 15.97308594 -6.63238281 16.44617188 -7.11914062 16.93359375 C-9.63744183 19.48368277 -11.93404616 22.07035309 -14 25 C-14.42468306 22.04077231 -14.54359944 19.85912029 -12.90722656 17.27294922 C-11.36796697 15.43498895 -9.77336217 13.67827607 -8.125 11.9375 C-3.06641895 6.6083431 -3.06641895 6.6083431 0 0 Z " fill="#2995D9" transform="translate(56,27)"/>
<path d="M0 0 C-0.59449312 6.30162703 -0.59449312 6.30162703 -2.125 8.9375 C-5.03094231 10.58420065 -7.73821805 10.18462917 -11 10 C-11.33 9.01 -11.66 8.02 -12 7 C-14.00016466 5.79117904 -14.00016466 5.79117904 -16 5 C-16 4.34 -16 3.68 -16 3 C-14.08802961 2.29954544 -12.17019565 1.615081 -10.25 0.9375 C-9.18265625 0.55464844 -8.1153125 0.17179688 -7.015625 -0.22265625 C-4.07719958 -0.98010011 -2.77651052 -1.07151741 0 0 Z " fill="#2DA0DC" transform="translate(70,8)"/>
<path d="M0 0 C0.33 0 0.66 0 1 0 C1 2.31 1 4.62 1 7 C1.99 7.33 2.98 7.66 4 8 C3.29117676 8.5347998 2.58235352 9.06959961 1.85205078 9.62060547 C-3.02450557 13.77813297 -6.46818702 17.09354833 -7.11212158 23.71905518 C-7.25398003 27.19557578 -7.21763974 30.64781515 -7.125 34.125 C-7.12305387 35.5729177 -7.12562526 37.02084883 -7.1328125 38.46875 C-7.14056231 41.98085198 -7.0874125 45.48882507 -7 49 C-3.37 49 0.26 49 4 49 C4 49.33 4 49.66 4 50 C0.04 50 -3.92 50 -8 50 C-8 40.1 -8 30.2 -8 20 C-8.99 20.99 -9.98 21.98 -11 23 C-11.66 23.66 -12.32 24.32 -13 25 C-13.3359375 22.828125 -13.3359375 22.828125 -13 20 C-11.2501544 18.06873228 -9.57846572 16.44239364 -7.625 14.75 C-2.62225125 10.14438235 -0.56037257 6.83654539 0 0 Z " fill="#0D5699" transform="translate(42,22)"/>
<path d="M0 0 C2.64 0 5.28 0 8 0 C8.33 1.32 8.66 2.64 9 4 C8.01 3.67 7.02 3.34 6 3 C4.80712589 6.87684087 4 9.91621923 4 14 C4.99 14.33 5.98 14.66 7 15 C7 15.66 7 16.32 7 17 C4.69 17 2.38 17 0 17 C0.165 16.505 0.33 16.01 0.5 15.5 C1.53958892 10.3020554 1.28044298 5.12177191 0 0 Z " fill="#277DCE" transform="translate(9,54)"/>
<path d="M0 0 C2.97 0.495 2.97 0.495 6 1 C3.04494023 4.54188015 0.07476838 7.98556789 -3.25 11.1875 C-5.5095651 13.49841885 -6.86108198 15.03881315 -8 18 C-8.56233067 14.14401829 -8.78469128 12.10259185 -6.4765625 8.859375 C-5.22321445 7.4781343 -3.94110787 6.12233119 -2.62890625 4.796875 C-0.77384463 2.99299249 -0.77384463 2.99299249 0 0 Z " fill="#238CD4" transform="translate(35,29)"/>
<path d="M0 0 C0.66 0 1.32 0 2 0 C2.0544207 2.68777802 2.09387266 5.37443212 2.125 8.0625 C2.14175781 8.81466797 2.15851562 9.56683594 2.17578125 10.34179688 C2.21865121 15.29327709 1.58399375 19.30414451 0 24 C-0.33 24 -0.66 24 -1 24 C-1.22580354 20.56341292 -1.42762697 17.12582782 -1.625 13.6875 C-1.68945312 12.71103516 -1.75390625 11.73457031 -1.8203125 10.72851562 C-1.871875 9.79072266 -1.9234375 8.85292969 -1.9765625 7.88671875 C-2.02893066 7.02264404 -2.08129883 6.15856934 -2.13525391 5.26831055 C-2 3 -2 3 0 0 Z " fill="#034889" transform="translate(32,42)"/>
<path d="M0 0 C0.66 1.32 1.32 2.64 2 4 C1.43152344 4.36351562 0.86304687 4.72703125 0.27734375 5.1015625 C-2.1745819 6.69797486 -4.58581713 8.34718384 -7 10 C-7.69996094 10.433125 -8.39992188 10.86625 -9.12109375 11.3125 C-12.41835276 13.6157828 -13.79068055 15.02234029 -14.65234375 19.046875 C-14.90951823 22.04841823 -15.03410875 24.98868445 -15 28 C-15.33 28 -15.66 28 -16 28 C-16.86951723 23.00832699 -17.72025444 17.70718814 -14.87060547 13.22265625 C-11.11640464 8.72220755 -6.61563128 3.87187709 -1 2 C-0.67 1.34 -0.34 0.68 0 0 Z " fill="#07518F" transform="translate(62,31)"/>
<path d="M0 0 C2.5 0.25 2.5 0.25 4.5 2.25 C5.39641694 8.86107492 5.39641694 8.86107492 3.15625 12.33203125 C1.6681929 14.05522945 0.14823003 15.68025711 -1.5 17.25 C-2.49 16.92 -3.48 16.59 -4.5 16.25 C-3.125 14.75 -3.125 14.75 -1.5 13.25 C-0.84 13.25 -0.18 13.25 0.5 13.25 C1.49 9.95 2.48 6.65 3.5 3.25 C0.86 2.92 -1.78 2.59 -4.5 2.25 C-2.5 0.25 -2.5 0.25 0 0 Z " fill="#044A8A" transform="translate(28.5,19.75)"/>
<path d="M0 0 C0.78375 0.04125 1.5675 0.0825 2.375 0.125 C2.375 2.435 2.375 4.745 2.375 7.125 C0.395 7.125 -1.585 7.125 -3.625 7.125 C-4.25 4.75 -4.25 4.75 -4.625 2.125 C-2.625 0.125 -2.625 0.125 0 0 Z " fill="#20AFE7" transform="translate(63.625,10.875)"/>
<path d="M0 0 C2.55558711 2.55558711 3.29083985 4.99655959 4.5625 8.375 C4.99691406 9.51710938 5.43132813 10.65921875 5.87890625 11.8359375 C6.72676048 14.2288362 7.45767071 16.52600348 8 19 C7.01 18.67 6.02 18.34 5 18 C4.67 15.69 4.34 13.38 4 11 C3.01 10.67 2.02 10.34 1 10 C0.67 6.7 0.34 3.4 0 0 Z " fill="#0B5799" transform="translate(14,34)"/>
<path d="M0 0 C1.32 0.33 2.64 0.66 4 1 C2.68 2.65 1.36 4.3 0 6 C0.66 6.33 1.32 6.66 2 7 C0.02 7 -1.96 7 -4 7 C-4 7.66 -4 8.32 -4 9 C-4.99 9.33 -5.98 9.66 -7 10 C-5.33248852 6.05860922 -2.77289351 3.2107188 0 0 Z " fill="#0662A0" transform="translate(60,20)"/>
<path d="M0 0 C0.4125 0.474375 0.825 0.94875 1.25 1.4375 C0.92 2.0975 0.59 2.7575 0.25 3.4375 C-0.44996094 2.94765625 -1.14992188 2.4578125 -1.87109375 1.953125 C-5.16248262 0.22034497 -7.12462384 0.09425408 -10.8125 0.1875 C-12.34583984 0.21070313 -12.34583984 0.21070313 -13.91015625 0.234375 C-16.33539159 0.40784438 -18.42844322 0.74715698 -20.75 1.4375 C-20.75 0.7775 -20.75 0.1175 -20.75 -0.5625 C-17.67230272 -1.58839909 -15.03831247 -1.90838149 -11.8125 -2.1875 C-10.25208984 -2.33058594 -10.25208984 -2.33058594 -8.66015625 -2.4765625 C-5.01285973 -2.5842679 -2.75035957 -2.45567819 0 0 Z " fill="#0B5E9D" transform="translate(38.75,14.5625)"/>
<path d="M0 0 C0.33 0 0.66 0 1 0 C2.65934066 6.8744113 2.65934066 6.8744113 0.90625 9.8671875 C-1.61935058 12.5603024 -3.15327458 13.88955755 -6.875 14.375 C-7.57625 14.25125 -8.2775 14.1275 -9 14 C-8 12 -8 12 -6.125 11.125 C-3.51370437 9.74254937 -2.48756932 8.55011883 -1 6 C-0.27954633 2.84881675 -0.27954633 2.84881675 0 0 Z " fill="#2182C7" transform="translate(33,24)"/>
<path d="M0 0 C-0.33 0.66 -0.66 1.32 -1 2 C-2.94848361 2.26420117 -4.89873946 2.52093364 -6.85546875 2.71484375 C-9.71654994 3.09527895 -12.30524369 3.98946638 -15 5 C-15 4.01 -15 3.02 -15 2 C-9.68670645 -0.08989546 -5.71271928 -1.6112798 0 0 Z " fill="#095995" transform="translate(71,6)"/>
<path d="M0 0 C0.598125 0.20625 1.19625 0.4125 1.8125 0.625 C1.4825 2.935 1.1525 5.245 0.8125 7.625 C-0.1775 7.955 -1.1675 8.285 -2.1875 8.625 C-1.8575 6.645 -1.5275 4.665 -1.1875 2.625 C-2.5075 2.295 -3.8275 1.965 -5.1875 1.625 C-2.1875 -0.375 -2.1875 -0.375 0 0 Z " fill="#36A7DD" transform="translate(68.1875,7.375)"/>
<path d="M0 0 C1.09651823 3.41139003 0.94215473 6.20655581 0.5625 9.75 C0.40974609 11.22726563 0.40974609 11.22726563 0.25390625 12.734375 C0.12822266 13.85585938 0.12822266 13.85585938 0 15 C-2 13 -2 13 -2.265625 10.9765625 C-2.26046875 10.20054688 -2.2553125 9.42453125 -2.25 8.625 C-2.25515625 7.85414062 -2.2603125 7.08328125 -2.265625 6.2890625 C-1.97688045 3.8007639 -1.24139229 2.15765802 0 0 Z " fill="#217AC0" transform="translate(15,19)"/>
<path d="M0 0 C1.43088528 2.86177057 0.59991697 4.93375773 0 8 C-0.598125 7.690625 -1.19625 7.38125 -1.8125 7.0625 C-4.08956772 5.89790296 -4.08956772 5.89790296 -7 5 C-7 4.34 -7 3.68 -7 3 C-5.02 3 -3.04 3 -1 3 C-0.67 2.01 -0.34 1.02 0 0 Z " fill="#3097CF" transform="translate(67,15)"/>
<path d="M0 0 C4.29 0 8.58 0 13 0 C13 0.33 13 0.66 13 1 C11.95199219 1.05607422 11.95199219 1.05607422 10.8828125 1.11328125 C9.51769531 1.21189453 9.51769531 1.21189453 8.125 1.3125 C6.76761719 1.39951172 6.76761719 1.39951172 5.3828125 1.48828125 C2.63778399 1.7882039 2.63778399 1.7882039 1 5 C0.01 5 -0.98 5 -2 5 C-1.34 3.35 -0.68 1.7 0 0 Z " fill="#04488B" transform="translate(18,67)"/>
<path d="M0 0 C2.64 0 5.28 0 8 0 C8.33 1.32 8.66 2.64 9 4 C8.236875 3.79375 7.47375 3.5875 6.6875 3.375 C3.78114056 2.66608797 3.78114056 2.66608797 1 5 C0.67 3.35 0.34 1.7 0 0 Z " fill="#2372B8" transform="translate(9,54)"/>
<path d="M0 0 C0.33 0 0.66 0 1 0 C1 2.31 1 4.62 1 7 C1.99 7.33 2.98 7.66 4 8 C2.35 9.32 0.7 10.64 -1 12 C-1.66 11.34 -2.32 10.68 -3 10 C-2.34 9.01 -1.68 8.02 -1 7 C-0.60612212 4.67612053 -0.26513915 2.34206251 0 0 Z " fill="#0C5FA1" transform="translate(42,22)"/>
<path d="M0 0 C0.66 0 1.32 0 2 0 C2 2.97 2 5.94 2 9 C0.35 9 -1.3 9 -3 9 C-2.34 8.01 -1.68 7.02 -1 6 C-0.60986284 4.0103005 -0.26797351 2.00980131 0 0 Z " fill="#2480CA" transform="translate(28,57)"/>
<path d="M0 0 C-0.375 2.4375 -0.375 2.4375 -1 5 C-1.99 5.495 -1.99 5.495 -3 6 C-3.66 5.67 -4.32 5.34 -5 5 C-5 3.68 -5 2.36 -5 1 C-3 0 -3 0 0 0 Z " fill="#21A1EA" transform="translate(40,24)"/>
<path d="M0 0 C2.5 0.25 2.5 0.25 4.5 2.25 C4.76991906 4.93839385 4.58737357 7.54141936 4.5 10.25 C4.17 10.25 3.84 10.25 3.5 10.25 C3.5 7.94 3.5 5.63 3.5 3.25 C0.86 2.92 -1.78 2.59 -4.5 2.25 C-2.5 0.25 -2.5 0.25 0 0 Z " fill="#075C9C" transform="translate(28.5,19.75)"/>
<path d="M0 0 C2 2 2 2 2.1953125 3.9453125 C2.13020833 5.96354167 2.06510417 7.98177083 2 10 C0.68 10.33 -0.64 10.66 -2 11 C-1.67 10.34 -1.34 9.68 -1 9 C-0.77532169 7.46331135 -0.59203195 5.92031946 -0.4375 4.375 C-0.35371094 3.55773437 -0.26992188 2.74046875 -0.18359375 1.8984375 C-0.12300781 1.27195312 -0.06242187 0.64546875 0 0 Z " fill="#2C9BDC" transform="translate(40,19)"/>
<path d="M0 0 C0.99 0.33 1.98 0.66 3 1 C2.67 2.65 2.34 4.3 2 6 C1.01 6.33 0.02 6.66 -1 7 C-1.04254356 5.00045254 -1.04080783 2.99958364 -1 1 C-0.67 0.67 -0.34 0.34 0 0 Z " fill="#093F77" transform="translate(25,28)"/>
<path d="M0 0 C2.31 0 4.62 0 7 0 C6.67 1.98 6.34 3.96 6 6 C5.34 5.67 4.68 5.34 4 5 C4 3.68 4 2.36 4 1 C2.68 1.33 1.36 1.66 0 2 C0 1.34 0 0.68 0 0 Z " fill="#2A8AC8" transform="translate(56,27)"/>
<path d="M0 0 C2.78637633 4.1795645 1.79562512 6.14668677 1 11 C-1.43769218 7.34346173 -1.23944439 5.30999899 -1 1 C-0.67 0.67 -0.34 0.34 0 0 Z " fill="#054D8B" transform="translate(23,23)"/>
<path d="M0 0 C0.66 0 1.32 0 2 0 C0.44499019 3.81684226 -2.03595495 6.19195732 -5 9 C-4.75 6.625 -4.75 6.625 -4 4 C-1.9375 2.6875 -1.9375 2.6875 0 2 C0 1.34 0 0.68 0 0 Z " fill="#075290" transform="translate(52,19)"/>
<path d="M0 0 C0.33 0.99 0.66 1.98 1 3 C-0.9375 6.1875 -0.9375 6.1875 -3 9 C-3.75 7.3125 -3.75 7.3125 -4 5 C-2.0625 2.25 -2.0625 2.25 0 0 Z " fill="#064C8B" transform="translate(17,14)"/>
</svg>
